<mxfile host="65bd71144e">
    <diagram id="10MSERfb5Jq957nE54AS" name="Page-1">
        <mxGraphModel dx="634" dy="287" grid="1" gridSize="10" guides="1" tooltips="1" connect="1" arrows="1" fold="1" page="1" pageScale="1" pageWidth="850" pageHeight="1100" background="#FFFFFF" math="0" shadow="0">
            <root>
                <mxCell id="0"/>
                <mxCell id="1" parent="0"/>
                <mxCell id="21" value="Has signal" style="edgeStyle=orthogonalEdgeStyle;rounded=0;orthogonalLoop=1;jettySize=auto;html=1;entryX=0;entryY=0.5;entryDx=0;entryDy=0;startSize=30;" parent="1" source="3" target="18" edge="1">
                    <mxGeometry relative="1" as="geometry"/>
                </mxCell>
                <mxCell id="3" value="Reading" style="swimlane;fontStyle=0;align=center;verticalAlign=top;childLayout=stackLayout;horizontal=1;startSize=30;horizontalStack=0;resizeParent=1;resizeParentMax=0;resizeLast=0;collapsible=0;marginBottom=0;html=1;rounded=1;absoluteArcSize=1;arcSize=15;glass=0;backgroundOutline=0;" parent="1" vertex="1">
                    <mxGeometry x="170" y="200" width="130" height="55" as="geometry"/>
                </mxCell>
                <mxCell id="9" value="do / readSignal" style="fillColor=none;strokeColor=none;align=left;verticalAlign=middle;spacingLeft=5;" parent="3" vertex="1">
                    <mxGeometry y="30" width="130" height="25" as="geometry"/>
                </mxCell>
                <mxCell id="17" style="edgeStyle=orthogonalEdgeStyle;rounded=0;orthogonalLoop=1;jettySize=auto;html=1;startSize=30;" parent="3" source="3" edge="1">
                    <mxGeometry relative="1" as="geometry">
                        <mxPoint x="110" as="targetPoint"/>
                        <Array as="points">
                            <mxPoint x="65" y="-40"/>
                            <mxPoint x="110" y="-40"/>
                        </Array>
                    </mxGeometry>
                </mxCell>
                <mxCell id="14" value="" style="edgeStyle=orthogonalEdgeStyle;rounded=0;orthogonalLoop=1;jettySize=auto;html=1;entryX=0;entryY=0.5;entryDx=0;entryDy=0;" parent="1" source="13" target="3" edge="1">
                    <mxGeometry relative="1" as="geometry">
                        <mxPoint x="160" y="227.52380952380952" as="targetPoint"/>
                    </mxGeometry>
                </mxCell>
                <mxCell id="13" value="" style="ellipse;fillColor=#000000;strokeColor=none;" parent="1" vertex="1">
                    <mxGeometry x="60" y="212.5" width="30" height="30" as="geometry"/>
                </mxCell>
                <mxCell id="18" value="Publishing signal" style="swimlane;fontStyle=0;align=center;verticalAlign=top;childLayout=stackLayout;horizontal=1;startSize=30;horizontalStack=0;resizeParent=1;resizeParentMax=0;resizeLast=0;collapsible=0;marginBottom=0;html=1;rounded=1;absoluteArcSize=1;arcSize=15;glass=0;backgroundOutline=0;" parent="1" vertex="1">
                    <mxGeometry x="410" y="192.5" width="130" height="70" as="geometry"/>
                </mxCell>
                <mxCell id="19" value="do / parseSignal&#10;do / publishToQueue" style="fillColor=none;strokeColor=none;align=left;verticalAlign=middle;spacingLeft=5;" parent="18" vertex="1">
                    <mxGeometry y="30" width="130" height="40" as="geometry"/>
                </mxCell>
                <mxCell id="22" value="Signal published" style="edgeStyle=orthogonalEdgeStyle;rounded=0;orthogonalLoop=1;jettySize=auto;html=1;entryX=0.5;entryY=1;entryDx=0;entryDy=0;startSize=30;" parent="1" source="19" target="9" edge="1">
                    <mxGeometry relative="1" as="geometry">
                        <Array as="points">
                            <mxPoint x="470" y="290"/>
                            <mxPoint x="235" y="290"/>
                        </Array>
                    </mxGeometry>
                </mxCell>
            </root>
        </mxGraphModel>
    </diagram>
</mxfile>